<?xml version="1.0" encoding="utf-8"?>
<!-- created with bpmn-js / http://bpmn.io -->
<!DOCTYPE svg PUBLIC "-//W3C//DTD SVG 1.1//EN" "http://www.w3.org/Graphics/SVG/1.1/DTD/svg11.dtd">
<svg xmlns="http://www.w3.org/2000/svg" xmlns:xlink="http://www.w3.org/1999/xlink" width="1123" height="390" viewBox="562 415 1123 390" version="1.1"><defs><pattern id="djs-grid-pattern-264328" width="10" height="10" patternUnits="userSpaceOnUse"><circle cx="0.5" cy="0.5" r="0.5" style="fill: rgb(204, 204, 204);"/></pattern><marker id="sequenceflow-end-white-hsl_225_10_15_-08soum138tgxcaq0nqi1kic14" viewBox="0 0 20 20" refX="11" refY="10" markerWidth="10" markerHeight="10" orient="auto"><path d="M 1 5 L 11 10 L 1 15 Z" style="stroke-linecap: round; stroke-linejoin: round; stroke: rgb(34, 36, 42); stroke-width: 1px; fill: rgb(34, 36, 42);"/></marker><marker id="sequenceflow-end-white-var_element_dragger_color_-08soum138tgxcaq0nqi1kic14" viewBox="0 0 20 20" refX="11" refY="10" markerWidth="10" markerHeight="10" orient="auto"><path d="M 1 5 L 11 10 L 1 15 Z" style="stroke-linecap: round; stroke-linejoin: round; stroke: var(--element-dragger-color); stroke-width: 1px; fill: var(--element-dragger-color);"/></marker><marker id="association-end-white-var_element_dragger_color_-08soum138tgxcaq0nqi1kic14" viewBox="0 0 20 20" refX="11" refY="10" markerWidth="10" markerHeight="10" orient="auto"><path d="M 1 5 L 11 10 L 1 15" style="fill: none; stroke-linecap: round; stroke-linejoin: round; stroke: var(--element-dragger-color); stroke-width: 1.5px; stroke-dasharray: 10000px, 1px;"/></marker><marker id="association-end-white-hsl_225_10_15_-08soum138tgxcaq0nqi1kic14" viewBox="0 0 20 20" refX="11" refY="10" markerWidth="10" markerHeight="10" orient="auto"><path d="M 1 5 L 11 10 L 1 15" style="fill: none; stroke-linecap: round; stroke-linejoin: round; stroke: rgb(34, 36, 42); stroke-width: 1.5px; stroke-dasharray: 10000px, 1px;"/></marker><marker id="association-end-white-_0d4372-08soum138tgxcaq0nqi1kic14" viewBox="0 0 20 20" refX="11" refY="10" markerWidth="10" markerHeight="10" orient="auto"><path d="M 1 5 L 11 10 L 1 15" style="fill: none; stroke-linecap: round; stroke-linejoin: round; stroke: rgb(13, 67, 114); stroke-width: 1.5px; stroke-dasharray: 10000px, 1px;"/></marker></defs><g class="djs-group"><g class="djs-element djs-shape" data-element-id="Participant_1mkrkqd" transform="matrix(1, 0, 0, 1, 567, 420)" style="display: block;"><g class="djs-visual"><rect x="0" y="0" width="1113" height="380" rx="0" ry="0" style="stroke-linecap: round; stroke-linejoin: round; stroke: rgb(34, 36, 42); stroke-width: 1.5px; fill: white; fill-opacity: 0.95;"/><path style="fill: none; stroke-linecap: round; stroke-linejoin: round; stroke: rgb(34, 36, 42); stroke-width: 1.5px;" d="M30,0L30,380"/><text style="font-family: Arial, sans-serif; font-size: 12px; font-weight: normal; fill: rgb(34, 36, 42);" lineHeight="1.2" class="djs-label" transform="matrix(-1.83697e-16, -1, 1, -1.83697e-16, 0, 380)"><tspan x="182" y="18.6">XP</tspan></text></g><rect x="-5" y="-5" rx="4" width="1123" height="390" style="fill: none;" class="djs-outline"/><rect style="fill: none; stroke-opacity: 0; stroke: white; stroke-width: 15px;" class="djs-hit djs-hit-no-move" x="0" y="0" width="1113" height="380"/><rect style="fill: none; stroke-opacity: 0; stroke: white; stroke-width: 15px;" class="djs-hit djs-hit-click-stroke" x="0" y="0" width="1113" height="380"/><rect style="fill: none; stroke-opacity: 0; stroke: white; stroke-width: 15px;" class="djs-hit djs-hit-all" x="0" y="0" width="30" height="380"/></g><g class="djs-children"><g class="djs-group"><g class="djs-element djs-shape selected" data-element-id="Lane_05jc9aw" transform="matrix(1, 0, 0, 1, 597, 420)" style="display: block;"><g class="djs-visual"><rect x="0" y="0" width="1083" height="380" rx="0" ry="0" style="stroke-linecap: round; stroke-linejoin: round; stroke: rgb(34, 36, 42); stroke-width: 1.5px; fill: white; fill-opacity: 0.25;"/><text style="font-family: Arial, sans-serif; font-size: 12px; font-weight: normal; fill: rgb(34, 36, 42);" lineHeight="1.2" class="djs-label" transform="matrix(-1.83697e-16, -1, 1, -1.83697e-16, 0, 380)"><tspan x="157.33333206176758" y="18.6">Pareamento</tspan></text></g><rect x="-5" y="-5" rx="4" width="1093" height="390" style="fill: none;" class="djs-outline"/><rect style="fill: none; stroke-opacity: 0; stroke: white; stroke-width: 15px;" class="djs-hit djs-hit-no-move" x="0" y="0" width="1083" height="380"/><rect style="fill: none; stroke-opacity: 0; stroke: white; stroke-width: 15px;" class="djs-hit djs-hit-click-stroke" x="0" y="0" width="1083" height="380"/><rect style="fill: none; stroke-opacity: 0; stroke: white; stroke-width: 15px;" class="djs-hit djs-hit-all" x="0" y="0" width="30" height="380"/></g></g><g class="djs-group"><g class="djs-element djs-shape" data-element-id="Activity_109lihz" transform="matrix(1, 0, 0, 1, 1132, 540)" style="display: block;"><g class="djs-visual"><rect x="0" y="0" width="100" height="80" rx="10" ry="10" style="stroke-linecap: round; stroke-linejoin: round; stroke: rgb(13, 67, 114); stroke-width: 2px; fill: rgb(187, 222, 251); fill-opacity: 0.95;"/><text style="font-family: Arial, sans-serif; font-size: 12px; font-weight: normal; fill: rgb(13, 67, 114);" lineHeight="1.2" class="djs-label"><tspan x="12" y="29.200000000000003">Realizando as </tspan><tspan x="23" y="43.6">atividades </tspan><tspan x="21.66666603088379" y="58">escolhidas</tspan></text></g><rect style="fill: none; stroke-opacity: 0; stroke: white; stroke-width: 15px;" class="djs-hit djs-hit-all" x="0" y="0" width="100" height="80"/><rect x="-5" y="-5" rx="14" width="110" height="90" style="fill: none;" class="djs-outline"/></g></g><g class="djs-group"><g class="djs-element djs-shape" data-element-id="Activity_1yqmgeh" transform="matrix(1, 0, 0, 1, 972, 540)" style="display: block;"><g class="djs-visual"><rect x="0" y="0" width="100" height="80" rx="10" ry="10" style="stroke-linecap: round; stroke-linejoin: round; stroke: rgb(13, 67, 114); stroke-width: 2px; fill: rgb(187, 222, 251); fill-opacity: 0.95;"/><text style="font-family: Arial, sans-serif; font-size: 12px; font-weight: normal; fill: rgb(13, 67, 114);" lineHeight="1.2" class="djs-label"><tspan x="32.66666603088379" y="29.200000000000003">Definir </tspan><tspan x="14.666667938232422" y="43.6">atividades na </tspan><tspan x="13" y="58">backlog sprint</tspan></text><path style="fill: rgb(187, 222, 251); stroke-linecap: round; stroke-linejoin: round; stroke: rgb(13, 67, 114); stroke-width: 0.5px;" d="m 15,12 c 0.909,-0.845 1.594,-2.049 1.594,-3.385 0,-2.554 -1.805,-4.62199999 -4.357,-4.62199999 -2.55199998,0 -4.28799998,2.06799999 -4.28799998,4.62199999 0,1.348 0.974,2.562 1.89599998,3.405 -0.52899998,0.187 -5.669,2.097 -5.794,4.7560005 v 6.718 h 17 v -6.718 c 0,-2.2980005 -5.5279996,-4.5950005 -6.0509996,-4.7760005 zm -8,6 l 0,5.5 m 11,0 l 0,-5"/><path style="fill: rgb(187, 222, 251); stroke-linecap: round; stroke-linejoin: round; stroke: rgb(13, 67, 114); stroke-width: 0.5px;" d="m 15,12 m 2.162,1.009 c 0,2.4470005 -2.158,4.4310005 -4.821,4.4310005 -2.66499998,0 -4.822,-1.981 -4.822,-4.4310005 "/><path style="fill: rgb(13, 67, 114); stroke-linecap: round; stroke-linejoin: round; stroke: rgb(13, 67, 114); stroke-width: 0.5px;" d="m 15,12 m -6.9,-3.80 c 0,0 2.25099998,-2.358 4.27399998,-1.177 2.024,1.181 4.221,1.537 4.124,0.965 -0.098,-0.57 -0.117,-3.79099999 -4.191,-4.13599999 -3.57499998,0.001 -4.20799998,3.36699999 -4.20699998,4.34799999 z"/></g><rect style="fill: none; stroke-opacity: 0; stroke: white; stroke-width: 15px;" class="djs-hit djs-hit-all" x="0" y="0" width="100" height="80"/><rect x="-5" y="-5" rx="14" width="110" height="90" style="fill: none;" class="djs-outline"/></g></g><g class="djs-group"><g class="djs-element djs-shape" data-element-id="Event_0mjpcch" transform="matrix(1, 0, 0, 1, 884, 562)" style="display: block;"><g class="djs-visual"><circle cx="18" cy="18" r="18" style="stroke-linecap: round; stroke-linejoin: round; stroke: rgb(107, 60, 0); stroke-width: 1.5px; fill: rgb(255, 224, 178); fill-opacity: 0.95;"/><circle cx="18" cy="18" r="15" style="stroke-linecap: round; stroke-linejoin: round; stroke: rgb(107, 60, 0); stroke-width: 1.5px; fill: none;"/><circle cx="18" cy="18" r="11" style="stroke-linecap: round; stroke-linejoin: round; stroke: rgb(107, 60, 0); stroke-width: 2px; fill: rgb(255, 224, 178);"/><path style="fill: none; stroke-linecap: round; stroke-linejoin: round; stroke: rgb(107, 60, 0); stroke-width: 2px;" d="M 18,18 l 2.25,-7.5 m -2.25,7.5 l 5.25,1.5 "/><path style="fill: none; stroke-linecap: round; stroke-linejoin: round; stroke: rgb(107, 60, 0); stroke-width: 1px;" transform="rotate(0,18,18)" d="M 18,18 m 0,7.5 l -0,2.25 "/><path style="fill: none; stroke-linecap: round; stroke-linejoin: round; stroke: rgb(107, 60, 0); stroke-width: 1px;" transform="rotate(30,18,18)" d="M 18,18 m 0,7.5 l -0,2.25 "/><path style="fill: none; stroke-linecap: round; stroke-linejoin: round; stroke: rgb(107, 60, 0); stroke-width: 1px;" transform="rotate(60,18,18)" d="M 18,18 m 0,7.5 l -0,2.25 "/><path style="fill: none; stroke-linecap: round; stroke-linejoin: round; stroke: rgb(107, 60, 0); stroke-width: 1px;" transform="rotate(90,18,18)" d="M 18,18 m 0,7.5 l -0,2.25 "/><path style="fill: none; stroke-linecap: round; stroke-linejoin: round; stroke: rgb(107, 60, 0); stroke-width: 1px;" transform="rotate(120,18,18)" d="M 18,18 m 0,7.5 l -0,2.25 "/><path style="fill: none; stroke-linecap: round; stroke-linejoin: round; stroke: rgb(107, 60, 0); stroke-width: 1px;" transform="rotate(150,18,18)" d="M 18,18 m 0,7.5 l -0,2.25 "/><path style="fill: none; stroke-linecap: round; stroke-linejoin: round; stroke: rgb(107, 60, 0); stroke-width: 1px;" transform="rotate(180,18,18)" d="M 18,18 m 0,7.5 l -0,2.25 "/><path style="fill: none; stroke-linecap: round; stroke-linejoin: round; stroke: rgb(107, 60, 0); stroke-width: 1px;" transform="rotate(210,18,18)" d="M 18,18 m 0,7.5 l -0,2.25 "/><path style="fill: none; stroke-linecap: round; stroke-linejoin: round; stroke: rgb(107, 60, 0); stroke-width: 1px;" transform="rotate(240,18,18)" d="M 18,18 m 0,7.5 l -0,2.25 "/><path style="fill: none; stroke-linecap: round; stroke-linejoin: round; stroke: rgb(107, 60, 0); stroke-width: 1px;" transform="rotate(270,18,18)" d="M 18,18 m 0,7.5 l -0,2.25 "/><path style="fill: none; stroke-linecap: round; stroke-linejoin: round; stroke: rgb(107, 60, 0); stroke-width: 1px;" transform="rotate(300,18,18)" d="M 18,18 m 0,7.5 l -0,2.25 "/><path style="fill: none; stroke-linecap: round; stroke-linejoin: round; stroke: rgb(107, 60, 0); stroke-width: 1px;" transform="rotate(330,18,18)" d="M 18,18 m 0,7.5 l -0,2.25 "/></g><rect style="fill: none; stroke-opacity: 0; stroke: white; stroke-width: 15px;" class="djs-hit djs-hit-all" x="0" y="0" width="36" height="36"/><circle cx="18" cy="18" r="23" style="fill: none;" class="djs-outline"/></g></g><g class="djs-group"><g class="djs-element djs-shape" data-element-id="Activity_1b1203s" transform="matrix(1, 0, 0, 1, 732, 540)" style="display: block;"><g class="djs-visual"><rect x="0" y="0" width="100" height="80" rx="10" ry="10" style="stroke-linecap: round; stroke-linejoin: round; stroke: rgb(13, 67, 114); stroke-width: 2px; fill: rgb(187, 222, 251); fill-opacity: 0.95;"/><text style="font-family: Arial, sans-serif; font-size: 12px; font-weight: normal; fill: rgb(13, 67, 114);" lineHeight="1.2" class="djs-label"><tspan x="13.333332061767578" y="36.4">Definir duplas </tspan><tspan x="12.333332061767578" y="50.8">pelos horários</tspan></text><path style="fill: rgb(187, 222, 251); stroke-linecap: round; stroke-linejoin: round; stroke: rgb(13, 67, 114); stroke-width: 0.5px;" d="m 15,12 c 0.909,-0.845 1.594,-2.049 1.594,-3.385 0,-2.554 -1.805,-4.62199999 -4.357,-4.62199999 -2.55199998,0 -4.28799998,2.06799999 -4.28799998,4.62199999 0,1.348 0.974,2.562 1.89599998,3.405 -0.52899998,0.187 -5.669,2.097 -5.794,4.7560005 v 6.718 h 17 v -6.718 c 0,-2.2980005 -5.5279996,-4.5950005 -6.0509996,-4.7760005 zm -8,6 l 0,5.5 m 11,0 l 0,-5"/><path style="fill: rgb(187, 222, 251); stroke-linecap: round; stroke-linejoin: round; stroke: rgb(13, 67, 114); stroke-width: 0.5px;" d="m 15,12 m 2.162,1.009 c 0,2.4470005 -2.158,4.4310005 -4.821,4.4310005 -2.66499998,0 -4.822,-1.981 -4.822,-4.4310005 "/><path style="fill: rgb(13, 67, 114); stroke-linecap: round; stroke-linejoin: round; stroke: rgb(13, 67, 114); stroke-width: 0.5px;" d="m 15,12 m -6.9,-3.80 c 0,0 2.25099998,-2.358 4.27399998,-1.177 2.024,1.181 4.221,1.537 4.124,0.965 -0.098,-0.57 -0.117,-3.79099999 -4.191,-4.13599999 -3.57499998,0.001 -4.20799998,3.36699999 -4.20699998,4.34799999 z"/></g><rect style="fill: none; stroke-opacity: 0; stroke: white; stroke-width: 15px;" class="djs-hit djs-hit-all" x="0" y="0" width="100" height="80"/><rect x="-5" y="-5" rx="14" width="110" height="90" style="fill: none;" class="djs-outline"/></g></g><g class="djs-group"><g class="djs-element djs-shape" data-element-id="Event_069ec94" transform="matrix(1, 0, 0, 1, 644, 562)" style="display: block;"><g class="djs-visual"><circle cx="18" cy="18" r="18" style="stroke-linecap: round; stroke-linejoin: round; stroke: rgb(32, 80, 34); stroke-width: 2px; fill: rgb(200, 230, 201); fill-opacity: 0.95;"/></g><rect style="fill: none; stroke-opacity: 0; stroke: white; stroke-width: 15px;" class="djs-hit djs-hit-all" x="0" y="0" width="36" height="36"/><circle cx="18" cy="18" r="23" style="fill: none;" class="djs-outline"/></g></g><g class="djs-group"><g class="djs-element djs-shape" data-element-id="DataStoreReference_115n7b7" transform="matrix(1, 0, 0, 1, 757, 685)" style="display: block;"><g class="djs-visual"><path style="fill: white; stroke-linecap: round; stroke-linejoin: round; stroke: rgb(34, 36, 42); stroke-width: 2px; fill-opacity: 0.95;" d="m  0,6.65 l  0,36.885245901639344 c  1.639344262295082,8.196721311475411 47.540983606557376,8.196721311475411  49.18032786885246,0 l  0,-36.885245901639344 c -1.639344262295082,-8.196721311475411 -47.540983606557376,-8.196721311475411 -49.18032786885246,0c  1.639344262295082,8.196721311475411 47.540983606557376,8.196721311475411  49.18032786885246,0 m  -49.18032786885246,5.737704918032787c  1.639344262295082,8.196721311475411 47.540983606557376,8.196721311475411 49.18032786885246,0m  -49.18032786885246,5.737704918032787c  1.639344262295082,8.196721311475411 47.540983606557376,8.196721311475411  49.18032786885246,0"/></g><rect style="fill: none; stroke-opacity: 0; stroke: white; stroke-width: 15px;" class="djs-hit djs-hit-all" x="0" y="0" width="50" height="50"/><path d="M1.03845 48.1347C1.03845 49.3511 1.07295 50.758 1.38342 52.064C1.69949 53.3938 2.32428 54.7154 3.56383 55.6428C6.02533 57.4841 10.1161 58.7685 14.8212 59.6067C19.5772 60.4538 25.1388 60.8738 30.6831 60.8738C36.2276 60.8738 41.7891 60.4538 46.545 59.6067C51.2504 58.7687 55.3412 57.4842 57.8028 55.6429C59.0424 54.7156 59.6673 53.3938 59.9834 52.064C60.2938 50.7579 60.3285 49.351 60.3285 48.1344V13.8415C60.3285 12.6249 60.2938 11.218 59.9834 9.91171C59.6673 8.58194 59.0423 7.2602 57.8027 6.33294C55.341 4.49168 51.2503 3.20723 46.545 2.36914C41.7891 1.522 36.2276 1.10204 30.6831 1.10205C25.1388 1.10206 19.5772 1.52206 14.8213 2.36923C10.1162 3.20734 6.02543 4.49183 3.5639 6.33314C2.32433 7.26038 1.69951 8.58206 1.38343 9.91181C1.07295 11.2179 1.03845 12.6247 1.03845 13.8411V48.1347Z" style="stroke-width: 2px; fill: none;" transform="translate(-6, -6)" class="djs-outline"/></g></g><g class="djs-group"><g class="djs-element djs-shape" data-element-id="Event_0r50nzu" transform="matrix(1, 0, 0, 1, 1582, 562)" style="display: block;"><g class="djs-visual"><circle cx="18" cy="18" r="18" style="stroke-linecap: round; stroke-linejoin: round; stroke: rgb(131, 19, 17); stroke-width: 4px; fill: rgb(255, 205, 210); fill-opacity: 0.95;"/></g><rect style="fill: none; stroke-opacity: 0; stroke: white; stroke-width: 15px;" class="djs-hit djs-hit-all" x="0" y="0" width="36" height="36"/><circle cx="18" cy="18" r="24" style="fill: none;" class="djs-outline"/></g></g><g class="djs-group"><g class="djs-element djs-shape" data-element-id="Activity_0fns7r1" transform="matrix(1, 0, 0, 1, 1410, 540)" style="display: block;"><g class="djs-visual"><rect x="0" y="0" width="100" height="80" rx="10" ry="10" style="stroke-linecap: round; stroke-linejoin: round; stroke: rgb(13, 67, 114); stroke-width: 2px; fill: rgb(187, 222, 251); fill-opacity: 0.95;"/><text style="font-family: Arial, sans-serif; font-size: 12px; font-weight: normal; fill: rgb(13, 67, 114);" lineHeight="1.2" class="djs-label"><tspan x="21.66666603088379" y="36.4">Revisar as </tspan><tspan x="23" y="50.8">atividades</tspan></text><circle cx="5" cy="5" r="5" style="stroke-linecap: round; stroke-linejoin: round; stroke: none; stroke-width: 2px; fill: rgb(187, 222, 251);" transform="translate(6, 6)"/><path style="fill: rgb(187, 222, 251); stroke-linecap: round; stroke-linejoin: round; stroke: rgb(13, 67, 114); stroke-width: 1px;" d="m 12,18 v -1.71335 c 0.352326,-0.0705 0.703932,-0.17838 1.047628,-0.32133 0.344416,-0.14465 0.665822,-0.32133 0.966377,-0.52145 l 1.19431,1.18005 1.567487,-1.57688 -1.195028,-1.18014 c 0.403376,-0.61394 0.683079,-1.29908 0.825447,-2.01824 l 1.622133,-0.01 v -2.2196 l -1.636514,0.01 c -0.07333,-0.35153 -0.178319,-0.70024 -0.323564,-1.04372 -0.145244,-0.34406 -0.321407,-0.6644 -0.522735,-0.96217 l 1.131035,-1.13631 -1.583305,-1.56293 -1.129598,1.13589 c -0.614052,-0.40108 -1.302883,-0.68093 -2.022633,-0.82247 l 0.0093,-1.61852 h -2.241173 l 0.0042,1.63124 c -0.353763,0.0736 -0.705369,0.17977 -1.049785,0.32371 -0.344415,0.14437 -0.665102,0.32092 -0.9635006,0.52046 l -1.1698628,-1.15823 -1.5667691,1.5792 1.1684265,1.15669 c -0.4026573,0.61283 -0.68308,1.29797 -0.8247287,2.01713 l -1.6588041,0.003 v 2.22174 l 1.6724648,-0.006 c 0.073327,0.35077 0.1797598,0.70243 0.3242851,1.04472 0.1452428,0.34448 0.3214064,0.6644 0.5227339,0.96066 l -1.1993431,1.19723 1.5840256,1.56011 1.1964668,-1.19348 c 0.6140517,0.40346 1.3028827,0.68232 2.0233517,0.82331 l 7.19e-4,1.69892 h 2.226848 z m 0.221462,-3.9957 c -1.788948,0.7502 -3.8576,-0.0928 -4.6097055,-1.87438 -0.7521065,-1.78321 0.090598,-3.84627 1.8802645,-4.59604 1.78823,-0.74936 3.856881,0.0929 4.608987,1.87437 0.752106,1.78165 -0.0906,3.84612 -1.879546,4.59605 z"/><circle cx="5" cy="5" r="5" style="stroke-linecap: round; stroke-linejoin: round; stroke: none; stroke-width: 2px; fill: rgb(187, 222, 251);" transform="translate(11, 10)"/><path style="fill: rgb(187, 222, 251); stroke-linecap: round; stroke-linejoin: round; stroke: rgb(13, 67, 114); stroke-width: 1px;" d="m 17,22 v -1.71335 c 0.352326,-0.0705 0.703932,-0.17838 1.047628,-0.32133 0.344416,-0.14465 0.665822,-0.32133 0.966377,-0.52145 l 1.19431,1.18005 1.567487,-1.57688 -1.195028,-1.18014 c 0.403376,-0.61394 0.683079,-1.29908 0.825447,-2.01824 l 1.622133,-0.01 v -2.2196 l -1.636514,0.01 c -0.07333,-0.35153 -0.178319,-0.70024 -0.323564,-1.04372 -0.145244,-0.34406 -0.321407,-0.6644 -0.522735,-0.96217 l 1.131035,-1.13631 -1.583305,-1.56293 -1.129598,1.13589 c -0.614052,-0.40108 -1.302883,-0.68093 -2.022633,-0.82247 l 0.0093,-1.61852 h -2.241173 l 0.0042,1.63124 c -0.353763,0.0736 -0.705369,0.17977 -1.049785,0.32371 -0.344415,0.14437 -0.665102,0.32092 -0.9635006,0.52046 l -1.1698628,-1.15823 -1.5667691,1.5792 1.1684265,1.15669 c -0.4026573,0.61283 -0.68308,1.29797 -0.8247287,2.01713 l -1.6588041,0.003 v 2.22174 l 1.6724648,-0.006 c 0.073327,0.35077 0.1797598,0.70243 0.3242851,1.04472 0.1452428,0.34448 0.3214064,0.6644 0.5227339,0.96066 l -1.1993431,1.19723 1.5840256,1.56011 1.1964668,-1.19348 c 0.6140517,0.40346 1.3028827,0.68232 2.0233517,0.82331 l 7.19e-4,1.69892 h 2.226848 z m 0.221462,-3.9957 c -1.788948,0.7502 -3.8576,-0.0928 -4.6097055,-1.87438 -0.7521065,-1.78321 0.090598,-3.84627 1.8802645,-4.59604 1.78823,-0.74936 3.856881,0.0929 4.608987,1.87437 0.752106,1.78165 -0.0906,3.84612 -1.879546,4.59605 z"/></g><rect style="fill: none; stroke-opacity: 0; stroke: white; stroke-width: 15px;" class="djs-hit djs-hit-all" x="0" y="0" width="100" height="80"/><rect x="-5" y="-5" rx="14" width="110" height="90" style="fill: none;" class="djs-outline"/></g></g><g class="djs-group"><g class="djs-element djs-shape" data-element-id="Gateway_0x0istr" transform="matrix(1, 0, 0, 1, 1295, 465)" style="display: block;"><g class="djs-visual"><polygon style="stroke-linecap: round; stroke-linejoin: round; stroke: rgb(107, 60, 0); stroke-width: 2px; fill: rgb(255, 224, 178); fill-opacity: 0.95;" points="25,0 50,25 25,50 0,25"/><path style="fill: rgb(107, 60, 0); stroke-linecap: round; stroke-linejoin: round; stroke: rgb(107, 60, 0); stroke-width: 1px;" d="m 16,15 7.42857142857143,9.714285714285715 -7.42857142857143,9.714285714285715 3.428571428571429,0 5.714285714285715,-7.464228571428572 5.714285714285715,7.464228571428572 3.428571428571429,0 -7.42857142857143,-9.714285714285715 7.42857142857143,-9.714285714285715 -3.428571428571429,0 -5.714285714285715,7.464228571428572 -5.714285714285715,-7.464228571428572 -3.428571428571429,0 z"/></g><rect style="fill: none; stroke-opacity: 0; stroke: white; stroke-width: 15px;" class="djs-hit djs-hit-all" x="0" y="0" width="50" height="50"/><rect style="transform-box: fill-box; transform: rotate(45deg); transform-origin: center center 0px; fill: none;" x="2" y="2" rx="4" width="46" height="46" class="djs-outline"/></g></g><g class="djs-group"><g class="djs-element djs-connection" data-element-id="Flow_1c32ugl" style="display: block;"><g class="djs-visual"><path style="fill: none; stroke-linecap: round; stroke-linejoin: round; stroke: rgb(34, 36, 42); stroke-width: 2px; marker-end: url('#sequenceflow-end-white-hsl_225_10_15_-08soum138tgxcaq0nqi1kic14');" data-corner-radius="5" d="M680,580L732,580"/></g><path d="M680,580L732,580" style="fill: none; stroke-opacity: 0; stroke: white; stroke-width: 15px;" class="djs-hit djs-hit-stroke"/><rect x="675" y="575" rx="4" width="62" height="10" style="fill: none;" class="djs-outline"/></g></g><g class="djs-group"><g class="djs-element djs-connection" data-element-id="Flow_0lwqzf6" style="display: block;"><g class="djs-visual"><path style="fill: none; stroke-linecap: round; stroke-linejoin: round; stroke: rgb(34, 36, 42); stroke-width: 2px; marker-end: url('#sequenceflow-end-white-hsl_225_10_15_-08soum138tgxcaq0nqi1kic14');" data-corner-radius="5" d="M832,580L884,580"/></g><path d="M832,580L884,580" style="fill: none; stroke-opacity: 0; stroke: white; stroke-width: 15px;" class="djs-hit djs-hit-stroke"/><rect x="827" y="575" rx="4" width="62" height="10" style="fill: none;" class="djs-outline"/></g></g><g class="djs-group"><g class="djs-element djs-connection" data-element-id="Flow_19b6sr8" style="display: block;"><g class="djs-visual"><path style="fill: none; stroke-linecap: round; stroke-linejoin: round; stroke: rgb(34, 36, 42); stroke-width: 2px; marker-end: url('#sequenceflow-end-white-hsl_225_10_15_-08soum138tgxcaq0nqi1kic14');" data-corner-radius="5" d="M920,580L972,580"/></g><path d="M920,580L972,580" style="fill: none; stroke-opacity: 0; stroke: white; stroke-width: 15px;" class="djs-hit djs-hit-stroke"/><rect x="915" y="575" rx="4" width="62" height="10" style="fill: none;" class="djs-outline"/></g></g><g class="djs-group"><g class="djs-element djs-connection" data-element-id="Flow_02c2xhi" style="display: block;"><g class="djs-visual"><path style="fill: none; stroke-linecap: round; stroke-linejoin: round; stroke: rgb(34, 36, 42); stroke-width: 2px; marker-end: url('#sequenceflow-end-white-hsl_225_10_15_-08soum138tgxcaq0nqi1kic14');" data-corner-radius="5" d="M1072,580L1132,580"/></g><path d="M1072,580L1132,580" style="fill: none; stroke-opacity: 0; stroke: white; stroke-width: 15px;" class="djs-hit djs-hit-stroke"/><rect x="1067" y="575" rx="4" width="70" height="10" style="fill: none;" class="djs-outline"/></g></g><g class="djs-group"><g class="djs-element djs-connection" data-element-id="Flow_0hbznq6" style="display: block;"><g class="djs-visual"><path style="fill: none; stroke-linecap: round; stroke-linejoin: round; stroke: rgb(34, 36, 42); stroke-width: 2px; marker-end: url('#sequenceflow-end-white-hsl_225_10_15_-08soum138tgxcaq0nqi1kic14');" data-corner-radius="5" d="M1295,490L1274,490C1271.5,490,1269,492.5,1269,495L1269,545C1269,547.5,1266.5,550,1264,550L1232,550"/></g><path d="M1295,490L1269,490L1269,550L1232,550" style="fill: none; stroke-opacity: 0; stroke: white; stroke-width: 15px;" class="djs-hit djs-hit-stroke"/><rect x="1227" y="485" rx="4" width="73" height="70" style="fill: none;" class="djs-outline"/></g></g><g class="djs-group"><g class="djs-element djs-connection" data-element-id="Flow_0qab2p3" style="display: block;"><g class="djs-visual"><path style="fill: none; stroke-linecap: round; stroke-linejoin: round; stroke: rgb(34, 36, 42); stroke-width: 2px; marker-end: url('#sequenceflow-end-white-hsl_225_10_15_-08soum138tgxcaq0nqi1kic14');" data-corner-radius="5" d="M1232,580L1315,580C1317.5,580,1320,577.5,1320,575L1320,515"/></g><path d="M1232,580L1320,580L1320,515" style="fill: none; stroke-opacity: 0; stroke: white; stroke-width: 15px;" class="djs-hit djs-hit-stroke"/><rect x="1227" y="510" rx="4" width="98" height="75" style="fill: none;" class="djs-outline"/></g></g><g class="djs-group"><g class="djs-element djs-connection" data-element-id="Flow_09j7f3v" style="display: block;"><g class="djs-visual"><path style="fill: none; stroke-linecap: round; stroke-linejoin: round; stroke: rgb(34, 36, 42); stroke-width: 2px; marker-end: url('#sequenceflow-end-white-hsl_225_10_15_-08soum138tgxcaq0nqi1kic14');" data-corner-radius="5" d="M1320,515L1320,575C1320,577.5,1322.5,580,1325,580L1410,580"/></g><path d="M1320,515L1320,580L1410,580" style="fill: none; stroke-opacity: 0; stroke: white; stroke-width: 15px;" class="djs-hit djs-hit-stroke"/><rect x="1315" y="510" rx="4" width="100" height="75" style="fill: none;" class="djs-outline"/></g></g><g class="djs-group"><g class="djs-element djs-connection" data-element-id="Flow_1ajwefo" style="display: block;"><g class="djs-visual"><path style="fill: none; stroke-linecap: round; stroke-linejoin: round; stroke: rgb(34, 36, 42); stroke-width: 2px; marker-end: url('#sequenceflow-end-white-hsl_225_10_15_-08soum138tgxcaq0nqi1kic14');" data-corner-radius="5" d="M1510,580L1582,580"/></g><path d="M1510,580L1582,580" style="fill: none; stroke-opacity: 0; stroke: white; stroke-width: 15px;" class="djs-hit djs-hit-stroke"/><rect x="1505" y="575" rx="4" width="82" height="10" style="fill: none;" class="djs-outline"/></g></g></g></g><g class="djs-group"><g class="djs-element djs-connection" data-element-id="DataOutputAssociation_0qy7fx2" style="display: block;"><g class="djs-visual"><path style="fill: none; stroke-linecap: round; stroke-linejoin: round; stroke: rgb(34, 36, 42); stroke-width: 2px; marker-end: url('#association-end-white-hsl_225_10_15_-08soum138tgxcaq0nqi1kic14'); stroke-dasharray: 0px, 5px;" data-corner-radius="5" d="M782,620L782,685"/></g><path d="M782,620L782,685" style="fill: none; stroke-opacity: 0; stroke: white; stroke-width: 15px;" class="djs-hit djs-hit-stroke"/><rect x="777" y="615" rx="4" width="10" height="75" style="fill: none;" class="djs-outline"/></g></g><g class="djs-group"><g class="djs-element djs-shape" data-element-id="Event_069ec94_label" transform="matrix(1, 0, 0, 1, 633, 605)" style="display: block;"><g class="djs-visual"><text style="font-family: Arial, sans-serif; font-size: 11px; font-weight: normal; fill: rgb(32, 80, 34);" lineHeight="1.2" class="djs-label"><tspan x="8.566667556762695" y="9.899999999999999">Início do </tspan><tspan x="0" y="23.099999999999998">pareamento</tspan></text></g><rect style="fill: none; stroke-opacity: 0; stroke: white; stroke-width: 15px;" class="djs-hit djs-hit-all" x="0" y="0" width="59" height="27"/><rect x="-5" y="-5" rx="4" width="69" height="37" style="fill: none;" class="djs-outline"/></g></g><g class="djs-group"><g class="djs-element djs-shape" data-element-id="DataStoreReference_115n7b7_label" transform="matrix(1, 0, 0, 1, 739, 742)" style="display: block;"><g class="djs-visual"><text style="font-family: Arial, sans-serif; font-size: 11px; font-weight: normal; fill: rgb(34, 36, 42);" lineHeight="1.2" class="djs-label"><tspan x="0" y="9.899999999999999">Mapa de horários</tspan><tspan x="12.233331680297852" y="23.099999999999998">do membros</tspan></text></g><rect style="fill: none; stroke-opacity: 0; stroke: white; stroke-width: 15px;" class="djs-hit djs-hit-all" x="0" y="0" width="86" height="27"/><rect x="-5" y="-5" rx="4" width="96" height="37" style="fill: none;" class="djs-outline"/></g></g><g class="djs-group"><g class="djs-element djs-shape" data-element-id="Event_0r50nzu_label" transform="matrix(1, 0, 0, 1, 1557, 605)" style="display: block;"><g class="djs-visual"><text style="font-family: Arial, sans-serif; font-size: 11px; font-weight: normal; fill: rgb(131, 19, 17);" lineHeight="1.2" class="djs-label"><tspan x="0" y="9.899999999999999">Fim das atividads</tspan></text></g><rect style="fill: none; stroke-opacity: 0; stroke: white; stroke-width: 15px;" class="djs-hit djs-hit-all" x="0" y="0" width="86" height="14"/><rect x="-5" y="-5" rx="4" width="96" height="24" style="fill: none;" class="djs-outline"/></g></g><g class="djs-group"><g class="djs-element djs-shape" data-element-id="Gateway_0x0istr_label" transform="matrix(1, 0, 0, 1, 1285, 427.5)" style="display: block;"><g class="djs-visual"><text style="font-family: Arial, sans-serif; font-size: 11px; font-weight: normal; fill: rgb(107, 60, 0);" lineHeight="1.2" class="djs-label"><tspan x="0" y="9.899999999999999">Finaizaram as </tspan><tspan x="6.716667175292969" y="23.099999999999998">atividades?</tspan></text></g><rect style="fill: none; stroke-opacity: 0; stroke: white; stroke-width: 15px;" class="djs-hit djs-hit-all" x="0" y="0" width="70" height="27"/><rect x="-5" y="-5" rx="4" width="80" height="37" style="fill: none;" class="djs-outline"/></g></g></svg>