<svg width="22" height="22" viewBox="0 0 22 22" fill="none" xmlns="http://www.w3.org/2000/svg">
<path d="M11 3.83333C10.5858 3.83333 10.25 4.16912 10.25 4.58333C10.25 4.99755 10.5858 5.33333 11 5.33333V3.83333ZM18.3333 5.33333C18.7475 5.33333 19.0833 4.99755 19.0833 4.58333C19.0833 4.16912 18.7475 3.83333 18.3333 3.83333V5.33333ZM11 16.6667C10.5858 16.6667 10.25 17.0025 10.25 17.4167C10.25 17.8309 10.5858 18.1667 11 18.1667V16.6667ZM18.3333 18.1667C18.7475 18.1667 19.0833 17.8309 19.0833 17.4167C19.0833 17.0025 18.7475 16.6667 18.3333 16.6667V18.1667ZM11 11.75C11.4142 11.75 11.75 11.4142 11.75 11C11.75 10.5858 11.4142 10.25 11 10.25V11.75ZM3.66666 10.25C3.25244 10.25 2.91666 10.5858 2.91666 11C2.91666 11.4142 3.25244 11.75 3.66666 11.75L3.66666 10.25ZM11 5.33333L18.3333 5.33333V3.83333L11 3.83333V5.33333ZM11 18.1667H18.3333V16.6667H11V18.1667ZM11 10.25L3.66666 10.25L3.66666 11.75L11 11.75V10.25ZM2.91666 4.58333C2.91666 6.01007 4.07325 7.16667 5.49999 7.16667V5.66667C4.90168 5.66667 4.41666 5.18164 4.41666 4.58333H2.91666ZM5.49999 7.16667C6.92673 7.16667 8.08332 6.01007 8.08332 4.58333H6.58332C6.58332 5.18164 6.0983 5.66667 5.49999 5.66667V7.16667ZM8.08332 4.58333C8.08332 3.1566 6.92673 2 5.49999 2V3.5C6.0983 3.5 6.58332 3.98502 6.58332 4.58333H8.08332ZM5.49999 2C4.07325 2 2.91666 3.1566 2.91666 4.58333H4.41666C4.41666 3.98502 4.90168 3.5 5.49999 3.5V2ZM2.91666 17.4167C2.91666 18.8434 4.07325 20 5.49999 20V18.5C4.90168 18.5 4.41666 18.015 4.41666 17.4167H2.91666ZM5.49999 20C6.92673 20 8.08332 18.8434 8.08332 17.4167H6.58332C6.58332 18.015 6.0983 18.5 5.49999 18.5V20ZM8.08332 17.4167C8.08332 15.9899 6.92673 14.8333 5.49999 14.8333V16.3333C6.0983 16.3333 6.58332 16.8184 6.58332 17.4167H8.08332ZM5.49999 14.8333C4.07325 14.8333 2.91666 15.9899 2.91666 17.4167H4.41666C4.41666 16.8184 4.90168 16.3333 5.49999 16.3333V14.8333ZM19.0833 11C19.0833 9.57326 17.9267 8.41667 16.5 8.41667V9.91667C17.0983 9.91667 17.5833 10.4017 17.5833 11H19.0833ZM16.5 8.41667C15.0733 8.41667 13.9167 9.57326 13.9167 11H15.4167C15.4167 10.4017 15.9017 9.91667 16.5 9.91667V8.41667ZM13.9167 11C13.9167 12.4267 15.0733 13.5833 16.5 13.5833V12.0833C15.9017 12.0833 15.4167 11.5983 15.4167 11H13.9167ZM16.5 13.5833C17.9267 13.5833 19.0833 12.4267 19.0833 11H17.5833C17.5833 11.5983 17.0983 12.0833 16.5 12.0833V13.5833Z" fill="#A7A7A7"/>
</svg>
